FFmpeg version SVN-r25716, Copyright (c) 2000-2010 the FFmpeg developers  built on Nov 10 2010 12:23:18 with gcc 4.1.2 20080704 (Red Hat 4.1.2-48)  configuration: --enable-libmp3lame --enable-shared --disable-mmx --arch=x86_64  libavutil     50.33. 0 / 50.33. 0  libavcore      0.12. 1 /  0.12. 1  libavcodec    52.94. 4 / 52.94. 4  libavformat   52.84. 0 / 52.84. 0  libavdevice   52. 2. 2 / 52. 2. 2  libavfilter    1.59. 0 /  1.59. 0  libswscale     0.12. 0 /  0.12. 0[mov,mp4,m4a,3gp,3g2,mj2 @ 0x531e4c0] multiple edit list entries, a/v desync might occur, patch welcome[mov,mp4,m4a,3gp,3g2,mj2 @ 0x531e4c0] max_analyze_duration reachedSeems stream 0 codec frame rate differs from container frame rate: 600.00 (600/1) -> 15.00 (15/1)Input #0, mov,mp4,m4a,3gp,3g2,mj2, from '/RAID10/data/converted_video_files/31203.mov':  Metadata:    major_brand     : qt      minor_version   : 537199360    compatible_brands: qt    Duration: 00:00:30.00, bitrate: 1340 kb/s    Stream #0.0(eng): Video: svq1, yuv410p, 844x100, 1338 kb/s, 15 fps, 15 tbr, 600 tbn, 600 tbc[buffer @ 0x5326a50] w:844 h:100 pixfmt:yuv410p[ffsink @ 0x5326cc0] auto-inserting filter 'auto-inserted scaler 0' between the filter 'src' and the filter 'out'[scale @ 0x5321860] w:844 h:100 fmt:yuv410p -> w:844 h:100 fmt:yuv420p flags:0x4Output #0, flv, to '/RAID10/data/converted_video_files/31203.flv':  Metadata:    encoder         : Lavf52.84.0    Stream #0.0(eng): Video: flv, yuv420p, 844x100, q=2-31, 600 kb/s, 1k tbn, 24 tbcStream mapping:  Stream #0.0 -> #0.0Press [q] to stop encodingframe=  144 fps=  0 q=7.2 size=     648kB time=9.62 bitrate= 551.3kbits/s dup=0 drop=2    frame=  282 fps=273 q=5.5 size=    1226kB time=18.79 bitrate= 534.5kbits/s dup=0 drop=2    frame=  414 fps=271 q=5.5 size=    1855kB time=27.62 bitrate= 550.0kbits/s dup=0 drop=2    frame=  448 fps=268 q=5.3 Lsize=    2021kB time=29.88 bitrate= 554.1kbits/s dup=0 drop=2    video:2014kB audio:0kB global headers:0kB muxing overhead 0.357827%